<svg data-v-423bf9ae="" xmlns="http://www.w3.org/2000/svg" viewBox="0 0 338 90" class="iconLeft"><!----><!----><!----><g data-v-423bf9ae="" id="0652bd11-0d22-4051-bb3f-4b896fad4005" fill="#000000" transform="matrix(6.036217558641619,0,0,6.036217558641619,96.86473741949263,-1.9014095916229863)"><path d="M0.98 2.80L0.98 12.60L6.37 12.60L6.37 11.20L2.52 11.20L2.52 2.80ZM11.66 8.69L8.11 8.69C8.17 8.26 8.38 7.92 8.74 7.66C9.10 7.41 9.52 7.28 9.98 7.28C10.97 7.28 11.53 7.75 11.66 8.69ZM8.08 9.73L13.20 9.73C13.22 9.61 13.23 9.45 13.23 9.25C13.23 8.25 12.94 7.45 12.35 6.88C11.76 6.31 10.97 6.02 9.98 6.02C8.97 6.02 8.16 6.33 7.53 6.96C6.90 7.59 6.58 8.40 6.58 9.38C6.58 10.38 6.88 11.19 7.48 11.81C8.09 12.43 8.92 12.74 9.98 12.74C11.39 12.74 12.42 12.24 13.08 11.24L11.97 10.56C11.62 11.13 10.95 11.41 9.98 11.41C9.47 11.41 9.04 11.27 8.69 10.98C8.35 10.69 8.14 10.27 8.08 9.73ZM15.20 8.01C15.85 7.54 16.51 7.31 17.19 7.31C18.10 7.31 18.55 7.56 18.55 8.05L18.55 8.90C18.08 8.65 17.53 8.53 16.88 8.53C16.06 8.53 15.38 8.72 14.83 9.11C14.28 9.51 14 10.06 14 10.78C14 11.43 14.23 11.92 14.69 12.25C15.14 12.58 15.70 12.74 16.35 12.74C16.85 12.74 17.29 12.65 17.68 12.46C18.06 12.27 18.35 12.01 18.55 11.68L18.55 12.60L20.02 12.60L20.02 7.98C20.02 7.32 19.76 6.82 19.25 6.50C18.74 6.18 18.05 6.02 17.19 6.02C16.28 6.02 15.43 6.30 14.66 6.87ZM15.41 10.64C15.41 10.36 15.57 10.12 15.88 9.90C16.18 9.70 16.59 9.59 17.08 9.59C17.61 9.59 18.10 9.67 18.55 9.84L18.55 10.08C18.55 10.65 18.40 11.05 18.11 11.27C17.82 11.49 17.37 11.61 16.77 11.61C15.87 11.61 15.41 11.28 15.41 10.64ZM25.33 7.67L25.94 6.47C25.65 6.17 25.25 6.02 24.74 6.02C24.49 6.02 24.23 6.11 23.98 6.29C23.72 6.47 23.50 6.72 23.31 7.03L23.31 6.16L21.77 6.16L21.77 12.60L23.31 12.60L23.31 8.82C23.31 7.84 23.67 7.35 24.39 7.35C24.71 7.35 25.03 7.46 25.33 7.67ZM28.39 7.15L28.39 6.16L26.92 6.16L26.92 12.60L28.39 12.60L28.39 8.96C28.39 8.51 28.56 8.13 28.89 7.82C29.22 7.51 29.60 7.35 30.03 7.35C30.44 7.35 30.75 7.45 30.95 7.64C31.16 7.83 31.26 8.18 31.26 8.68L31.26 12.60L32.73 12.60L32.73 8.54C32.73 7.63 32.53 6.98 32.14 6.59C31.74 6.21 31.18 6.02 30.45 6.02C29.56 6.02 28.88 6.40 28.39 7.15ZM35.13 8.01C35.77 7.54 36.43 7.31 37.11 7.31C38.02 7.31 38.47 7.56 38.47 8.05L38.47 8.90C38.01 8.65 37.45 8.53 36.81 8.53C35.98 8.53 35.30 8.72 34.75 9.11C34.20 9.51 33.92 10.06 33.92 10.78C33.92 11.43 34.15 11.92 34.61 12.25C35.07 12.58 35.62 12.74 36.27 12.74C36.77 12.74 37.21 12.65 37.60 12.46C37.98 12.27 38.28 12.01 38.47 11.68L38.47 12.60L39.94 12.60L39.94 7.98C39.94 7.32 39.69 6.82 39.17 6.50C38.66 6.18 37.97 6.02 37.11 6.02C36.20 6.02 35.35 6.30 34.58 6.87ZM35.34 10.64C35.34 10.36 35.49 10.12 35.80 9.90C36.11 9.70 36.51 9.59 37.00 9.59C37.53 9.59 38.02 9.67 38.47 9.84L38.47 10.08C38.47 10.65 38.33 11.05 38.03 11.27C37.74 11.49 37.29 11.61 36.69 11.61C35.79 11.61 35.34 11.28 35.34 10.64Z"></path></g><defs data-v-423bf9ae=""><linearGradient data-v-423bf9ae="" gradientTransform="rotate(25)" id="7dc98f8a-8d47-4796-b6f2-7e06e3d66319" x1="0%" y1="0%" x2="100%" y2="0%"><stop data-v-423bf9ae="" offset="0%" style="stop-color: rgb(32, 72, 79); stop-opacity: 1;"></stop><stop data-v-423bf9ae="" offset="100%" style="stop-color: rgb(78, 155, 171); stop-opacity: 1;"></stop></linearGradient></defs><g data-v-423bf9ae="" id="21c01bc5-020d-4de5-9017-f9aa19c8c5a5" transform="matrix(1.954228904513396,0,0,1.954228904513396,-30.6015061247287,-25.507282431631765)" stroke="none" fill="url(#7dc98f8a-8d47-4796-b6f2-7e06e3d66319)"><path d="M42.172 19.102c2.473 1.05 4.527 2.257 6.187 4.425a17.964 17.964 0 013.153 6.457c.445 1.715.715 2.942.804 3.676.094.785.184 1.387.266 1.809.07.355.016.855.117 1.226.055.2.082.364.086.485.031 1.25.149 2.488.356 3.718.062.368.21.54.578.559a.4.4 0 01.191.05c2.195 1.138 3.8 2.458 4.172 5.02.355 2.453.277 4.72-.23 6.797-1.172 4.813-6.032 5.637-10.204 5.715-7.41.145-12.093.16-14.054.05-1.801-.1-3.844.005-5.082-.03a277.409 277.409 0 01-6.492-.274c-5.13-.277-5.707-4.836-6.04-8.84-.28-3.367.926-5.687 4.36-6.492.152-.035.23-.133.238-.289.043-1.434-.148-3.016-.152-4.281-.004-2.024-.004-4.051 0-6.074 0-.07.035-.153.105-.254a.391.391 0 00.067-.2c.34-5.695 3.726-10.855 9.14-12.91.43-.164.528-.418.563-.84.363-4.28 5.183-6.898 8.898-4.707 1.61.95 2.492 2.532 2.649 4.747a.504.504 0 00.324.457zm-9.406-.446c2.23-.398 4.468-.48 6.714-.246a.322.322 0 00.293-.117.327.327 0 00.07-.313c-1.202-4.289-6.14-3.507-7.484.196a.37.37 0 00.063.355.367.367 0 00.344.125zm-5.653 13.52c-.644 1.3 1.07 2.25 1.684 1.14.77-1.386 1.75-2.472 2.95-3.246 4.37-2.836 10.53-1.191 12.55 3.766.023.062.066.11.121.14.66.383 1.453.227 1.648-.558.075-.3.075-.54-.007-.711-1.145-2.488-2.934-4.215-5.368-5.184-4.886-1.941-11.113-.332-13.578 4.653zm.469 19.133c.133.941.176 2.964 1.352 2.968 5.808.004 11.62.004 17.43 0 2.35-.004 1.417-2.379 1.41-3.832-.02-2.968-.126-5.93-.317-8.89-.031-.47-.293-.688-.633-.946a.29.29 0 00-.195-.066c-7.39.324-13.207.422-19.11.77-.87.05-1.222.363-1.105 1.253.379 2.918.77 5.832 1.168 8.743zm28.488.863c.45-3.012.75-6.899-2.347-8.578a.353.353 0 00-.282-.024.342.342 0 00-.214.188c-.102.207-.118.347-.051.594.113.414.047.937.058 1.218.145 3.235.2 6.512.164 9.832a.285.285 0 00.16.278.296.296 0 00.325-.004c1.222-.758 1.953-1.926 2.187-3.504zm-37.418 1.945c.313.852 1.203 2.45 2.301 2.426a.275.275 0 00.274-.293l-.465-10.41a.305.305 0 00-.125-.242.307.307 0 00-.27-.059c-1.652.375-2.293 1.473-2.379 3.152-.09 1.7.117 3.946.664 5.426zm0 0"></path><path d="M45.18 42.71c.53.048.437 1.325.39 1.669-.023.195-.136.297-.332.309l-16.113.878c-.098.004-.164-.039-.195-.129a4.282 4.282 0 01-.207-1.925c.015-.137.093-.211.234-.219 3.84-.27 7.676-.316 11.516-.441 1.203-.04 3.242-.278 4.707-.141zm0 0M30.262 52.258c-.84-.004-.82-1.465-.825-2.063-.007-.87-.37-1.55-.3-2.468.008-.098.058-.149.156-.157 5.355-.476 10.762-.64 16.176-.937a.209.209 0 01.164.058c.047.043.07.098.074.16l.117 5.004a.383.383 0 01-.113.286.375.375 0 01-.285.12c-5.059.005-10.114.005-15.164-.003zm0 0"></path></g><!----></svg>